<mxfile host="app.diagrams.net" modified="2022-04-13T03:27:57.866Z" agent="5.0 (Windows NT 10.0; WOW64) AppleWebKit/537.36 (KHTML, like Gecko) Chrome/99.0.4844.84 Safari/537.36" etag="hMeVU1E3LsEnlcEi_J_A" version="17.4.3" type="github" pages="4">
  <diagram id="wHOXtbFzsqbxaY9y36Qa" name="Topics">
    <mxGraphModel dx="1278" dy="547" grid="1" gridSize="10" guides="1" tooltips="1" connect="1" arrows="1" fold="1" page="1" pageScale="1" pageWidth="827" pageHeight="1169" math="0" shadow="0">
      <root>
        <mxCell id="0" />
        <mxCell id="1" parent="0" />
        <mxCell id="XcCG60vfJ_4-gFg8ghdK-1" value="&lt;font style=&quot;font-size: 24px&quot;&gt;What is form-create?&lt;/font&gt;" style="rounded=0;whiteSpace=wrap;html=1;flipV=0;flipH=0;" parent="1" vertex="1">
          <mxGeometry x="220" y="250" width="340" height="90" as="geometry" />
        </mxCell>
        <mxCell id="XcCG60vfJ_4-gFg8ghdK-2" value="&lt;font style=&quot;font-size: 24px&quot;&gt;Quick demo&lt;/font&gt;" style="rounded=0;whiteSpace=wrap;html=1;flipV=0;flipH=0;" parent="1" vertex="1">
          <mxGeometry x="220" y="360" width="340" height="90" as="geometry" />
        </mxCell>
        <mxCell id="XcCG60vfJ_4-gFg8ghdK-3" value="&lt;font style=&quot;font-size: 24px&quot;&gt;How we use?&lt;/font&gt;" style="rounded=0;whiteSpace=wrap;html=1;flipV=0;flipH=0;" parent="1" vertex="1">
          <mxGeometry x="220" y="480" width="340" height="90" as="geometry" />
        </mxCell>
        <mxCell id="XcCG60vfJ_4-gFg8ghdK-4" value="&lt;font style=&quot;font-size: 48px&quot;&gt;Topics&lt;/font&gt;" style="text;strokeColor=none;fillColor=none;html=1;fontSize=24;fontStyle=1;verticalAlign=middle;align=center;flipV=0;flipH=0;" parent="1" vertex="1">
          <mxGeometry x="340" y="180" width="100" height="40" as="geometry" />
        </mxCell>
      </root>
    </mxGraphModel>
  </diagram>
  <diagram id="nEIDUZdqUormvf-ta0Hz" name="1. What is form-create?">
    <mxGraphModel dx="860" dy="974" grid="1" gridSize="10" guides="1" tooltips="1" connect="1" arrows="1" fold="1" page="1" pageScale="1" pageWidth="827" pageHeight="1169" math="0" shadow="0">
      <root>
        <mxCell id="0" />
        <mxCell id="1" parent="0" />
        <mxCell id="fFix_f5iiehwotflwIBN-1" value="&lt;span style=&quot;font-size: 48px&quot;&gt;What is form-create?&lt;/span&gt;" style="text;strokeColor=none;fillColor=none;html=1;fontSize=24;fontStyle=1;verticalAlign=middle;align=center;flipV=0;flipH=0;" parent="1" vertex="1">
          <mxGeometry x="340" y="180" width="100" height="40" as="geometry" />
        </mxCell>
        <mxCell id="zpqxaHorutE7Zv-VUjvX-1" value="&lt;span style=&quot;font-size: 24px&quot;&gt;&lt;a href=&quot;http://www.form-create.com&quot;&gt;Official&amp;nbsp;Site&lt;/a&gt;&lt;/span&gt;" style="rounded=0;whiteSpace=wrap;html=1;flipV=0;flipH=0;" parent="1" vertex="1">
          <mxGeometry x="220" y="250" width="340" height="90" as="geometry" />
        </mxCell>
        <mxCell id="hoP9czY8-e6oGllQix-s-1" value="&lt;font style=&quot;font-size: 24px&quot;&gt;&lt;a href=&quot;http://www.form-create.com/v2/guide/example.html&quot;&gt;Online Demo&lt;/a&gt;&lt;/font&gt;" style="rounded=0;whiteSpace=wrap;html=1;flipV=0;flipH=0;" parent="1" vertex="1">
          <mxGeometry x="220" y="360" width="340" height="90" as="geometry" />
        </mxCell>
        <mxCell id="tFrTlXKZdyED1NYk4q9Z-1" value="&lt;font style=&quot;font-size: 24px&quot;&gt;&lt;a href=&quot;http://www.form-create.com/v3/instance.html&quot;&gt;API Document&lt;/a&gt;&lt;/font&gt;" style="rounded=0;whiteSpace=wrap;html=1;flipV=0;flipH=0;" parent="1" vertex="1">
          <mxGeometry x="220" y="480" width="340" height="90" as="geometry" />
        </mxCell>
      </root>
    </mxGraphModel>
  </diagram>
  <diagram id="ZASOGBbHsUsPo-wAvWAS" name="2. Quick Demo">
    <mxGraphModel dx="1278" dy="547" grid="1" gridSize="10" guides="1" tooltips="1" connect="1" arrows="1" fold="1" page="1" pageScale="1" pageWidth="827" pageHeight="1169" math="0" shadow="0">
      <root>
        <mxCell id="0" />
        <mxCell id="1" parent="0" />
        <mxCell id="Qr_gkENAu9nSlmzX8PUF-1" value="&lt;span style=&quot;font-size: 48px&quot;&gt;Quick demo&lt;/span&gt;" style="text;strokeColor=none;fillColor=none;html=1;fontSize=24;fontStyle=1;verticalAlign=middle;align=center;flipV=0;flipH=0;" parent="1" vertex="1">
          <mxGeometry x="340" y="180" width="100" height="40" as="geometry" />
        </mxCell>
        <mxCell id="CBL36d35s5mIbuAFe2Fw-1" value="&lt;font style=&quot;font-size: 24px&quot;&gt;&lt;a href=&quot;https://www.antdv.com/docs/vue/getting-started-cn/&quot;&gt;Setup ant-design vue site&lt;/a&gt;&lt;/font&gt;" style="rounded=0;whiteSpace=wrap;html=1;flipV=0;flipH=0;" parent="1" vertex="1">
          <mxGeometry x="220" y="250" width="340" height="90" as="geometry" />
        </mxCell>
        <mxCell id="p1moajnamP8SqOMiPCEL-1" value="&lt;font style=&quot;font-size: 24px&quot;&gt;&lt;a href=&quot;http://www.form-create.com/v3/ant-design-vue/&quot;&gt;Install @form-create/ant-design-vue&lt;/a&gt;&lt;/font&gt;" style="rounded=0;whiteSpace=wrap;html=1;flipV=0;flipH=0;" parent="1" vertex="1">
          <mxGeometry x="220" y="360" width="340" height="90" as="geometry" />
        </mxCell>
        <mxCell id="i_WeJTHvn1mlAtm2ti3X-1" value="&lt;font style=&quot;font-size: 24px&quot;&gt;&lt;a href=&quot;http://www.form-create.com/v2/guide/start.html#%E7%BB%84%E4%BB%B6%E6%A8%A1%E5%BC%8F&quot;&gt;config page&lt;/a&gt;&lt;/font&gt;" style="rounded=0;whiteSpace=wrap;html=1;flipV=0;flipH=0;" parent="1" vertex="1">
          <mxGeometry x="220" y="600" width="340" height="90" as="geometry" />
        </mxCell>
        <mxCell id="SHCOtZvIt0tFUaiuwL-d-1" value="&lt;font style=&quot;font-size: 24px&quot;&gt;&lt;a href=&quot;http://www.form-create.com/v2/guide/start.html#%E5%BC%95%E5%85%A5-form-create&quot;&gt;Register globally&lt;/a&gt;&lt;/font&gt;" style="rounded=0;whiteSpace=wrap;html=1;flipV=0;flipH=0;" parent="1" vertex="1">
          <mxGeometry x="220" y="480" width="340" height="90" as="geometry" />
        </mxCell>
      </root>
    </mxGraphModel>
  </diagram>
  <diagram id="AUbIHFCFKuerb20SWkKM" name="3. How we use">
    <mxGraphModel dx="1278" dy="547" grid="1" gridSize="10" guides="1" tooltips="1" connect="1" arrows="1" fold="1" page="1" pageScale="1" pageWidth="850" pageHeight="1100" math="0" shadow="0">
      <root>
        <mxCell id="0" />
        <mxCell id="1" parent="0" />
        <mxCell id="JFQt4dEQCoQPBI_L18Ne-1" value="&lt;span style=&quot;font-size: 48px&quot;&gt;How we use&lt;/span&gt;" style="text;strokeColor=none;fillColor=none;html=1;fontSize=24;fontStyle=1;verticalAlign=middle;align=center;flipV=0;flipH=0;" vertex="1" parent="1">
          <mxGeometry x="340" y="180" width="100" height="40" as="geometry" />
        </mxCell>
      </root>
    </mxGraphModel>
  </diagram>
</mxfile>
